<svg xmlns="http://www.w3.org/2000/svg" width="1680" height="260" viewBox="0 0 1680 260">
<rect x="0" y="0" width="280" height="260" fill="#111419"/><text x="12" y="24" font-size="13" fill="#94a0b0">ModalEnter · 0ms p=0.00</text><rect x="0" y="36" width="280" height="224" fill="rgba(0,0,0,0.000)"/><rect x="8.399994" y="92" width="263.2" height="141" rx="16" fill="#21262e" stroke="#3a424e" opacity="0.000"/><text x="28.399994" y="137" font-size="18" fill="#e8eef6" opacity="0.000">semantic motion</text></g>
<rect x="280" y="0" width="280" height="260" fill="#111419"/><text x="292" y="24" font-size="13" fill="#94a0b0">ModalEnter · 50ms p=0.50</text><rect x="280" y="36" width="280" height="224" fill="rgba(0,0,0,0.227)"/><rect x="284.1678" y="80.91566" width="271.6644" height="145.5345" rx="16" fill="#21262e" stroke="#3a424e" opacity="0.504"/><text x="304.1678" y="125.91566" font-size="18" fill="#e8eef6" opacity="0.504">semantic motion</text></g>
<rect x="560" y="0" width="280" height="260" fill="#111419"/><text x="572" y="24" font-size="13" fill="#94a0b0">ModalEnter · 100ms p=0.80</text><rect x="560" y="36" width="280" height="224" fill="rgba(0,0,0,0.361)"/><rect x="561.66736" y="74.3669" width="276.66528" height="148.21355" rx="16" fill="#21262e" stroke="#3a424e" opacity="0.802"/><text x="581.66736" y="119.3669" font-size="18" fill="#e8eef6" opacity="0.802">semantic motion</text></g>
<rect x="840" y="0" width="280" height="260" fill="#111419"/><text x="852" y="24" font-size="13" fill="#94a0b0">ModalEnter · 160ms p=0.96</text><rect x="840" y="36" width="280" height="224" fill="rgba(0,0,0,0.433)"/><rect x="840.3111" y="70.81481" width="279.37778" height="149.66666" rx="16" fill="#21262e" stroke="#3a424e" opacity="0.963"/><text x="860.3111" y="115.81481" font-size="18" fill="#e8eef6" opacity="0.963">semantic motion</text></g>
<rect x="1120" y="0" width="280" height="260" fill="#111419"/><text x="1132" y="24" font-size="13" fill="#94a0b0">ModalEnter · 240ms p=1.00</text><rect x="1120" y="36" width="280" height="224" fill="rgba(0,0,0,0.450)"/><rect x="1120" y="70" width="280" height="150" rx="16" fill="#21262e" stroke="#3a424e" opacity="1.000"/><text x="1140" y="115" font-size="18" fill="#e8eef6" opacity="1.000">semantic motion</text></g>
<rect x="1400" y="0" width="280" height="260" fill="#111419"/><text x="1412" y="24" font-size="13" fill="#94a0b0">ModalEnter · 320ms p=1.00</text><rect x="1400" y="36" width="280" height="224" fill="rgba(0,0,0,0.450)"/><rect x="1400" y="70" width="280" height="150" rx="16" fill="#21262e" stroke="#3a424e" opacity="1.000"/><text x="1420" y="115" font-size="18" fill="#e8eef6" opacity="1.000">semantic motion</text></g>
</svg>
